# xmcd
#
# Track frame offsets: 
#        150
#        19255
#        37017
#        61977
#        73366
#        94693
#        111528
#        130190
#        149739
#        191727
#        236341
#        265815
#        286863
#        300878
#
# Disc length: 4371 seconds
#
# Revision: 1
# Processed by: cddbd v1.4PL0 Copyright (c) Steve Scherf et al.
# Submitted via: ExactAudioCopy v0.90a11
#
DISCID=d211110e
DTITLE=Van Morrison - Wild Night
DYEAR=1900
DGENRE=
TTITLE0=I've Been Working
TTITLE1=Young Lovers Do
TTITLE2=Purple Heather
TTITLE3=Come Running
TTITLE4=Sweet Thing
TTITLE5=Blue Money
TTITLE6=Green
TTITLE7=Wild Night
TTITLE8=Caravan
TTITLE9=Cypress Avenue
TTITLE10=It's Not The Twilight Zone
TTITLE11=Foggy Mountain Top
TTITLE12=Heathrow Shuffle
TTITLE13=Naked In the Jungle
EXTD=This is a bootleg - trade it, don't sell it!\n\ntracks 1-10  trou
EXTD=bador, la  5-26-73\ntracks 11-14 studio alternates 1974\n
EXTT0=Stated as being recorded live in Los Angeles May 26,1973
EXTT1=
EXTT2=
EXTT3=
EXTT4=
EXTT5=
EXTT6=
EXTT7=
EXTT8=
EXTT9=
EXTT10=
EXTT11=
EXTT12=
EXTT13=
PLAYORDER=
